<svg width="20" height="20" viewBox="0 0 33 30" fill="none" xmlns="http://www.w3.org/2000/svg">
                                <path d="M27.6547 12.489C27.2206 13.0713 26.7238 13.587 26.179 14.0213C28.4867 15.4934 30.0204 18.0761 30.0204 21.0104C30.0204 21.9629 28.6229 22.6196 27.79 22.9263C27.1404 23.1655 26.3767 23.3614 25.5419 23.5093C25.5689 23.8619 25.5828 24.2183 25.5828 24.5778C25.5828 24.8889 25.5557 25.2515 25.4768 25.6462C26.5987 25.4718 27.6288 25.2183 28.5139 24.8924C31.4908 23.7964 32.1156 22.1764 32.1156 21.0104C32.1155 17.4853 30.3488 14.3657 27.6547 12.489Z" fill="#2088BD" />
                                <path d="M21.7364 0C20.4281 0 19.1935 0.519309 18.194 1.47671C18.5873 1.98037 18.931 2.52454 19.2229 3.10014C19.8928 2.33612 20.7729 1.87087 21.7364 1.87087C23.8284 1.87087 25.5303 4.0604 25.5303 6.75164C25.5303 9.44289 23.8284 11.6324 21.7364 11.6324C21.1072 11.6324 20.5137 11.4332 19.9908 11.0829C19.821 11.7019 19.5978 12.2995 19.3253 12.8683C20.0685 13.284 20.8868 13.5034 21.7364 13.5034C24.937 13.5034 27.4012 10.4096 27.4012 6.75164C27.4012 3.09337 24.9367 0 21.7364 0Z" fill="#2088BD" />
                                <path d="M18.1576 14.7449C17.7045 15.3179 17.2228 15.7987 16.721 16.204C19.5732 17.9057 21.4879 21.0221 21.4879 24.5777C21.4879 25.7786 19.8046 26.5778 18.8011 26.9472C16.9836 27.6165 14.4114 28.0002 11.7439 28.0002C9.07638 28.0002 6.50407 27.6165 4.68656 26.9472C3.68314 26.5778 1.99979 25.7787 1.99979 24.5777C1.99979 21.022 3.91451 17.9056 6.76666 16.204C6.26495 15.7988 5.78314 15.3179 5.33011 14.7449C2.12326 16.8439 0 20.4672 0 24.5778C0 25.8437 0.693204 27.608 3.99559 28.8239C6.05551 29.5824 8.80723 30 11.7438 30C14.6804 30 17.4321 29.5824 19.492 28.8239C22.7944 27.608 23.4876 25.8437 23.4876 24.5778C23.4876 20.4672 21.3644 16.8439 18.1576 14.7449Z" fill="#2088BD" />
                                <path d="M11.7438 15.8961C15.4454 15.8961 18.295 12.3181 18.295 8.08804C18.295 3.85793 15.4451 0.279968 11.7438 0.279968C8.04281 0.279968 5.19269 3.85724 5.19269 8.08804C5.19269 12.3189 8.04309 15.8961 11.7438 15.8961ZM11.7438 2.27968C14.2535 2.27968 16.2952 4.88531 16.2952 8.08797C16.2952 11.2906 14.2534 13.8963 11.7438 13.8963C9.23423 13.8963 7.19247 11.2906 7.19247 8.08797C7.19247 4.88531 9.23423 2.27968 11.7438 2.27968Z" fill="#2088BD" />
                            </svg>