<svg width="32" height="32" viewBox="0 0 32 32" fill="none" xmlns="http://www.w3.org/2000/svg">
<path d="M31.242 4.945C31.242 3.751 30.274 2.783 29.08 2.783H25.424V0.882C25.424 0.395 25.029 0 24.542 0H22.637C22.152 0 21.754 0.395 21.754 0.882V2.784H9.614V0.882C9.614 0.395 9.219 0 8.732 0H6.954C6.467 0 6.072 0.395 6.072 0.882V2.784H2.162C0.968 2.784 0 3.752 0 4.946V12.65H1.139V29.399C1.139 30.628 2.134 31.622 3.362 31.622H27.756C28.985 31.622 29.979 30.628 29.979 29.399V12.649H31.246L31.242 4.945ZM26.436 25.73C26.436 26.959 25.442 27.953 24.213 27.953H7.03C5.802 27.953 4.807 26.959 4.807 25.73V12.649H26.435V25.73H26.436Z" fill="#2088BD"/>
<path d="M11.3847 15.051H7.84375V18.72H11.3847V15.051Z" fill="#2088BD"/>
<path d="M17.4551 15.051H13.9141V18.72H17.4551V15.051Z" fill="#2088BD"/>
<path d="M23.5264 15.051H19.9844V18.72H23.5264V15.051Z" fill="#2088BD"/>
<path d="M11.3847 21.502H7.84375V25.17H11.3847V21.502Z" fill="#2088BD"/>
<path d="M17.4551 21.502H13.9141V25.17H17.4551V21.502Z" fill="#2088BD"/>
<path d="M23.5264 21.502H19.9844V25.17H23.5264V21.502Z" fill="#2088BD"/>
</svg>
