<svg width="30" height="30" viewBox="0 0 30 30" fill="none" xmlns="http://www.w3.org/2000/svg">
                                    <path d="M15 17.6923C13.2505 17.6923 11.5401 17.1735 10.0854 16.2015C8.63063 15.2294 7.49679 13.8478 6.82725 12.2314C6.1577 10.615 5.98252 8.83634 6.32385 7.12035C6.66518 5.40437 7.5077 3.82814 8.74486 2.59099C9.98201 1.35383 11.5582 0.511308 13.2742 0.169985C14.9902 -0.171353 16.7689 0.00383116 18.3853 0.673385C20.0017 1.34292 21.3833 2.47675 22.3554 3.93149C23.3274 5.38625 23.8462 7.09655 23.8462 8.84615C23.8422 11.1911 22.9088 13.4388 21.2506 15.0968C19.5926 16.7549 17.3449 17.6883 15 17.6923ZM15 2.30769C13.7068 2.30769 12.4426 2.69117 11.3675 3.40963C10.2922 4.12808 9.45416 5.14925 8.95927 6.344C8.46439 7.53874 8.33492 8.85342 8.58721 10.1218C8.83949 11.3901 9.46222 12.5551 10.3766 13.4695C11.2911 14.384 12.456 15.0068 13.7245 15.2589C14.9928 15.5112 16.3074 15.3818 17.5022 14.8869C18.6969 14.392 19.7182 13.554 20.4365 12.4788C21.1549 11.4035 21.5385 10.1393 21.5385 8.84615C21.5345 7.11329 20.8442 5.45257 19.6189 4.22726C18.3936 3.00194 16.7329 2.31175 15 2.30769Z" fill="#585E62" />
                                    <path d="M28.8462 30C28.5414 29.996 28.2502 29.8732 28.0346 29.6577C27.8191 29.4422 27.6963 29.1509 27.6923 28.8462C27.6883 25.8892 26.5118 23.0546 24.4209 20.9637C22.33 18.8728 19.4954 17.6963 16.5385 17.6923H13.4615C10.5046 17.6963 7.66994 18.8728 5.57908 20.9637C3.4882 23.0546 2.31177 25.8892 2.30769 28.8462C2.30769 29.1522 2.18612 29.4457 1.96974 29.662C1.75335 29.8785 1.45986 30 1.15385 30C0.847831 30 0.554339 29.8785 0.337954 29.662C0.121569 29.4457 0 29.1522 0 28.8462C0.00407692 25.2772 1.42365 21.8555 3.94729 19.3318C6.47094 16.8083 9.89257 15.3886 13.4615 15.3846H16.5385C20.1074 15.3886 23.5291 16.8083 26.0528 19.3318C28.5763 21.8555 29.996 25.2772 30 28.8462C29.996 29.1509 29.8732 29.4422 29.6577 29.6577C29.4422 29.8732 29.1509 29.996 28.8462 30Z" fill="#585E62" />
                                </svg>