 <svg className="answer__detalis-arrow" width="20" height="20" viewBox="0 0 20 20" fill="none" xmlns="http://www.w3.org/2000/svg">
                            <path fill-rule="evenodd" clip-rule="evenodd" d="M14.6472 8.43041C14.9476 8.73081 14.9476 9.21791 14.6472 9.51831L11.2699 12.8956C10.5689 13.5966 9.4325 13.5966 8.7315 12.8956L5.35421 9.51831C5.0538 9.21791 5.0538 8.73081 5.35421 8.43041C5.65461 8.13001 6.14166 8.13001 6.44207 8.43041L9.8194 11.8078C9.9195 11.9079 10.0819 11.9079 10.182 11.8078L13.5593 8.43041C13.8597 8.13001 14.3468 8.13001 14.6472 8.43041Z" fill="#2088BD" />
                            <path fill-rule="evenodd" clip-rule="evenodd" d="M10 1.53846C7.83082 1.53846 4.86615 1.73753 3.01495 1.88095C2.40616 1.92811 1.92811 2.40616 1.88095 3.01495C1.73753 4.86615 1.53846 7.83082 1.53846 10C1.53846 12.1692 1.73753 15.1338 1.88095 16.985C1.92811 17.5938 2.40616 18.0719 3.01495 18.1191C4.86615 18.2625 7.83082 18.4615 10 18.4615C12.1692 18.4615 15.1338 18.2625 16.985 18.1191C17.5938 18.0719 18.0719 17.5938 18.1191 16.985C18.2625 15.1338 18.4615 12.1692 18.4615 10C18.4615 7.83082 18.2625 4.86615 18.1191 3.01495C18.0719 2.40616 17.5938 1.92811 16.985 1.88095C15.1338 1.73753 12.1692 1.53846 10 1.53846ZM2.89612 0.34708C4.74819 0.2036 7.76547 0 10 0C12.2345 0 15.2518 0.2036 17.1039 0.34708C18.4686 0.45281 19.5472 1.53141 19.6529 2.89612C19.7964 4.74819 20 7.76547 20 10C20 12.2345 19.7964 15.2518 19.6529 17.1039C19.5472 18.4686 18.4686 19.5472 17.1039 19.6529C15.2518 19.7964 12.2345 20 10 20C7.76547 20 4.74819 19.7964 2.89612 19.6529C1.53141 19.5472 0.45281 18.4686 0.34708 17.1039C0.2036 15.2518 0 12.2345 0 10C0 7.76547 0.2036 4.74819 0.34708 2.89612C0.45281 1.53141 1.53141 0.45281 2.89612 0.34708Z" fill="#2088BD" />
                        </svg>