<svg width="53" height="50" viewBox="0 0 53 50" fill="none" xmlns="http://www.w3.org/2000/svg">
<path d="M51.8723 26.3064C51.8837 26.2963 51.8837 26.2963 51.8952 26.2862C51.9295 26.2457 51.9637 26.2153 51.9866 26.1748C51.998 26.1647 51.998 26.1546 52.0095 26.1445C52.0323 26.104 52.0666 26.0635 52.0895 26.023C52.0895 26.0129 52.1009 26.0028 52.1009 26.0028C52.1238 25.9623 52.1467 25.9218 52.1695 25.8712C52.1695 25.8611 52.1695 25.8611 52.181 25.851C52.2038 25.8105 52.2152 25.7599 52.2381 25.7093C52.2381 25.6992 52.2381 25.689 52.2495 25.689C52.261 25.6384 52.2838 25.5979 52.2838 25.5473C52.2838 25.5271 52.2838 25.517 52.2953 25.4967C52.3067 25.4563 52.3067 25.4158 52.3181 25.3753C52.3296 25.3146 52.3296 25.2639 52.3296 25.2032C52.3296 25.1425 52.3296 25.0919 52.3181 25.0312C52.3181 24.9907 52.3067 24.9502 52.2953 24.9097C52.2953 24.8895 52.2953 24.8793 52.2838 24.8591C52.2724 24.8085 52.261 24.768 52.2495 24.7174C52.2495 24.7073 52.2495 24.6972 52.2381 24.6972C52.2267 24.6466 52.2038 24.6061 52.181 24.5555C52.181 24.5454 52.181 24.5454 52.1695 24.5352C52.1467 24.4947 52.1238 24.4441 52.1009 24.4037C52.1009 24.3935 52.0895 24.3834 52.0895 24.3834C52.0666 24.3429 52.0438 24.3024 52.0095 24.262C51.998 24.2518 51.998 24.2417 51.9866 24.2316C51.9523 24.1911 51.9295 24.1506 51.8952 24.1203C51.8837 24.1101 51.8837 24.1101 51.8723 24.1C51.8266 24.0595 51.7923 24.0089 51.7351 23.9684L40.4291 13.9688C39.6632 13.2907 38.4171 13.2907 37.6512 13.9688C36.8853 14.6469 36.8853 15.7501 37.6512 16.4282L45.6077 23.4725H13.976C12.89 23.4725 12.0098 24.2518 12.0098 25.2032C12.0098 26.1647 12.89 26.9441 13.976 26.9441H45.6191L37.7198 33.9377C36.9539 34.6159 36.9539 35.7191 37.7198 36.3972C38.097 36.7312 38.6 36.9032 39.103 36.9032C39.606 36.9032 40.109 36.7312 40.4863 36.3972L51.7237 26.4481C51.7808 26.3874 51.8266 26.3469 51.8723 26.3064Z" fill="#2088BD"/>
<path d="M10.9916 3.88823H25.6242C26.7103 3.88823 27.5905 3.1089 27.5905 2.15752C27.5905 1.19601 26.7103 0.416687 25.6242 0.416687H10.9916C5.12711 0.416687 0.348633 4.64731 0.348633 9.83944V40.5772C0.348633 45.7694 5.12711 50 10.9916 50H25.3842C26.4702 50 27.3504 49.2207 27.3504 48.2693C27.3504 47.3078 26.4702 46.5285 25.3842 46.5285H10.9916C7.28771 46.5285 4.26973 43.8565 4.26973 40.5772V9.83944C4.28116 6.55008 7.28771 3.88823 10.9916 3.88823Z" fill="#2088BD"/>
</svg>
