<svg width="30" height="30" viewBox="0 0 38 36" fill="none" xmlns="http://www.w3.org/2000/svg">
                                    <path d="M18.5422 0.374141C18.3093 0.372645 18.0782 0.400731 17.8626 0.456753C17.6469 0.512774 17.451 0.595606 17.2864 0.700391L0.513008 11.3657C0.35037 11.4691 0.221354 11.5918 0.13333 11.7269C0.0453061 11.862 0 12.0068 0 12.153C0 12.2993 0.0453061 12.444 0.13333 12.5791C0.221354 12.7142 0.35037 12.837 0.513008 12.9403L17.286 23.6065C17.4486 23.71 17.6416 23.792 17.854 23.848C18.0664 23.904 18.2941 23.9328 18.5241 23.9328C18.754 23.9328 18.9817 23.904 19.1942 23.848C19.4066 23.792 19.5996 23.71 19.7622 23.6065L36.5348 12.9408C36.6975 12.8374 36.8265 12.7146 36.9145 12.5796C37.0025 12.4445 37.0478 12.2997 37.0478 12.1535C37.0478 12.0072 37.0025 11.8624 36.9145 11.7274C36.8265 11.5923 36.6975 11.4695 36.5348 11.3662L19.7622 0.700391C19.4383 0.494312 19.0004 0.377181 18.5422 0.374141ZM18.5241 3.06141L32.8224 12.1535L18.5241 21.2447L4.22651 12.1526L18.5241 3.06141ZM1.7522 16.1809L0.513378 16.9682C0.35074 17.0716 0.221724 17.1943 0.1337 17.3294C0.0456765 17.4645 0.000370461 17.6093 0.000370461 17.7555C0.000370461 17.9017 0.0456765 18.0465 0.1337 18.1816C0.221724 18.3167 0.35074 18.4394 0.513378 18.5428L17.286 29.2086C17.4486 29.312 17.6416 29.3941 17.854 29.45C18.0664 29.506 18.2941 29.5348 18.5241 29.5348C18.754 29.5348 18.9817 29.506 19.1942 29.45C19.4066 29.3941 19.5996 29.312 19.7622 29.2086L36.5348 18.5428C36.6974 18.4394 36.8264 18.3166 36.9143 18.1815C37.0023 18.0464 37.0475 17.9016 37.0475 17.7554C37.0474 17.6092 37.002 17.4644 36.9139 17.3293C36.8258 17.1943 36.6968 17.0716 36.5341 16.9682L35.296 16.1809L32.8202 17.7546L32.8217 17.7555L18.5241 26.8476L4.22577 17.7555L4.22725 17.7546L1.7522 16.1809ZM1.7522 21.783L0.513378 22.5707C0.35074 22.6741 0.221724 22.7968 0.1337 22.9319C0.0456765 23.067 0.000370461 23.2118 0.000370461 23.358C0.000370461 23.5042 0.0456765 23.649 0.1337 23.7841C0.221724 23.9192 0.35074 24.0419 0.513378 24.1453L17.286 34.8106C17.4486 34.9141 17.6416 34.9961 17.854 35.0521C18.0664 35.108 18.2941 35.1369 18.5241 35.1369C18.754 35.1369 18.9817 35.108 19.1942 35.0521C19.4066 34.9961 19.5996 34.9141 19.7622 34.8106L36.5348 24.1448C36.6974 24.0414 36.8264 23.9187 36.9143 23.7836C37.0023 23.6485 37.0475 23.5037 37.0475 23.3575C37.0474 23.2112 37.002 23.0664 36.9139 22.9314C36.8258 22.7963 36.6968 22.6736 36.5341 22.5703L35.296 21.783L32.8202 23.3567L32.8217 23.3575L18.5241 32.4496L4.22577 23.3575L4.22725 23.3567L1.7522 21.783Z" fill="#585E62" />
                                </svg>