<svg width="30" height="30" viewBox="0 0 30 30" fill="none"
                                    xmlns="http://www.w3.org/2000/svg">
                                    <g clip-path="url(#clip0_7_6071)">
                                        <path
                                            d="M29.5939 13.5424L22.5091 6.72136V1.29275C22.5091 0.593467 21.9325 0.0168686 21.2332 0.0168686C20.5339 0.0168686 19.9573 0.593467 19.9573 1.29275V4.26775L15.872 0.335838C15.4243 -0.111946 14.6575 -0.111946 14.1484 0.335838L0.432685 13.5424C-0.0764391 14.0515 -0.143913 14.8183 0.371345 15.3274C0.886603 15.8365 1.64722 15.904 2.15635 15.3887L2.3465 15.2047V28.7241C2.3465 29.4234 2.9231 30 3.62238 30H26.4655C27.1648 30 27.68 29.4234 27.7414 28.7855V15.3335L27.8702 15.4562C28.8026 16.1003 29.465 15.6464 29.6552 15.3274C30.103 14.8183 30.103 13.9902 29.5939 13.5424ZM17.2767 27.5157H12.8112V20.6885H17.2767V27.5157ZM25.1896 27.5157H19.7671V19.4127C19.7671 18.7134 19.1905 18.1368 18.4913 18.1368H11.5353C10.836 18.1368 10.2594 18.7134 10.2594 19.4127V27.5157H4.89826V15.0084H25.1896V27.5157ZM5.14362 12.5242L15.0439 3.01641L24.8461 12.5242H5.14362Z"
                                            fill="#585E62" />
                                    </g>
                                    <defs>
                                        <clipPath id="clip0_7_6071">
                                            <rect width="30" height="30" fill="#585E62" />
                                        </clipPath>
                                    </defs>
                                </svg>