<svg width="30" height="30" viewBox="0 0 36 30" fill="none" xmlns="http://www.w3.org/2000/svg">
                                    <path d="M31.25 25.9206C30.9238 25.8533 30.6031 26.0637 30.5358 26.3908L30.0415 28.7906H5.11297L2.62185 18.3737C2.54423 18.0489 2.21787 17.8484 1.89316 17.9263C1.56839 18.0039 1.36794 18.3302 1.4457 18.6549L4.04769 29.5359C4.11274 29.808 4.35598 30 4.63577 30H30.5343C30.8212 30 31.0687 29.7984 31.1266 29.5173L31.7203 26.6349C31.7877 26.3077 31.5772 25.988 31.25 25.9206Z" fill="#585E62" />
                                    <path d="M35.0344 9.44092C34.9196 9.29996 34.7474 9.21821 34.5657 9.21821H32.7528L33.6219 5.58357C33.665 5.40353 33.6232 5.21374 33.5086 5.06838C33.3939 4.9231 33.219 4.83827 33.0338 4.83827H29.2079L30.03 0.723123C30.0655 0.545485 30.0194 0.361252 29.9046 0.221258C29.7898 0.0811942 29.6182 0 29.4371 0H12.3597C12.0257 0 11.755 0.270716 11.755 0.604697C11.755 0.938679 12.0257 1.20939 12.3597 1.20939H28.6996L27.0996 9.21835H23.7816C23.5139 9.21835 23.2781 9.39434 23.202 9.65091L22.5242 11.9334H8.61316L6.47079 1.20939H9.94098C10.275 1.20939 10.5457 0.938679 10.5457 0.604697C10.5457 0.270716 10.275 0 9.94098 0H5.73331C5.55217 0 5.38058 0.0811942 5.26565 0.221258C5.15087 0.361321 5.10478 0.545553 5.14029 0.723123L5.9624 4.83827H2.13652C1.95139 4.83827 1.77644 4.9231 1.66179 5.06838C1.54707 5.21374 1.50538 5.40353 1.54845 5.58364L3.06696 11.9333H0.604685C0.419559 11.9333 0.2446 12.0181 0.129953 12.1634C0.0152371 12.3087 -0.0264591 12.4985 0.0166109 12.6787L0.867432 16.2362C0.945123 16.561 1.27114 16.7616 1.59612 16.6837C1.92096 16.6061 2.12134 16.2798 2.04358 15.955L1.37101 13.1427H22.9754C23.243 13.1427 23.4789 12.9667 23.555 12.7102L24.2328 10.4276H33.8237L31.0341 23.9721C30.9667 24.2992 31.1772 24.619 31.5043 24.6863C31.5456 24.6948 31.5865 24.6989 31.627 24.6989C31.9078 24.6989 32.1597 24.502 32.2186 24.2161L35.1579 9.94491C35.1946 9.76686 35.1492 9.5818 35.0344 9.44092ZM4.31042 11.9333L2.90285 6.04773H6.20406L7.37986 11.9333H4.31042ZM31.5093 9.21828H28.3329L28.9663 6.04773H32.2674L31.5093 9.21828Z" fill="#585E62" />
                                </svg>