<svg width="30" height="30" viewBox="0 0 30 30" fill="none" xmlns="http://www.w3.org/2000/svg">
                                    <g clipPath="url(#clip0_120_1540)">
                                        <path d="M28.4644 11.8508L26.3587 11.4936C26.1394 10.7855 25.8574 10.1024 25.5127 9.4506L26.7535 7.71466C27.28 6.97516 27.1985 5.96618 26.553 5.32696L24.6855 3.45941C24.3345 3.10846 23.8708 2.91419 23.3757 2.91419C22.9871 2.91419 22.6174 3.03326 22.304 3.25887L20.5618 4.49972C19.885 4.1425 19.1768 3.84796 18.4436 3.62862L18.0926 1.54799C17.9422 0.651822 17.1714 6.10352e-05 16.2627 6.10352e-05H13.6243C12.7156 6.10352e-05 11.9448 0.651822 11.7944 1.54799L11.4309 3.67875C10.729 3.89809 10.0459 4.18637 9.39413 4.53732L7.67073 3.29647C7.35738 3.07086 6.98136 2.95179 6.59281 2.95179C6.09773 2.95179 5.62771 3.14606 5.28303 3.49701L3.40921 5.36456C2.76998 6.00378 2.68225 7.01276 3.20867 7.75226L4.46206 9.51327C4.11738 10.1713 3.84163 10.8544 3.62855 11.5626L1.54793 11.9135C0.651761 12.0639 0 12.8347 0 13.7434V16.3818C0 17.2905 0.651761 18.0614 1.54793 18.2118L3.67869 18.5753C3.89803 19.2772 4.18631 19.9602 4.53726 20.612L3.30267 22.3291C2.77625 23.0686 2.85772 24.0776 3.50322 24.7169L5.37076 26.5844C5.72171 26.9353 6.18546 27.1296 6.68055 27.1296C7.0691 27.1296 7.43885 27.0105 7.7522 26.7849L9.51321 25.5316C10.1462 25.8637 10.8105 26.1332 11.4936 26.3463L11.8445 28.4519C11.9949 29.3481 12.7657 29.9999 13.6744 29.9999H16.3191C17.2278 29.9999 17.9986 29.3481 18.149 28.4519L18.5063 26.3463C19.2144 26.1269 19.8975 25.8449 20.5493 25.5002L22.2852 26.7411C22.5986 26.9667 22.9746 27.0858 23.3631 27.0858C23.8582 27.0858 24.322 26.8915 24.6729 26.5405L26.5405 24.673C27.1797 24.0338 27.2674 23.0248 26.741 22.2853L25.5002 20.5431C25.8448 19.885 26.1331 19.2019 26.3462 18.5L28.4519 18.1491C29.3481 17.9987 29.9998 17.2279 29.9998 16.3192V13.6808C30.0123 12.7721 29.3606 12.0012 28.4644 11.8508ZM28.3203 16.3192C28.3203 16.4006 28.2639 16.4696 28.1824 16.4821L25.5503 16.9208C25.2181 16.9772 24.9549 17.2216 24.8735 17.5412C24.6353 18.4625 24.2718 19.3461 23.783 20.1671C23.6138 20.4553 23.6263 20.8125 23.8206 21.0883L25.3685 23.2692C25.4124 23.3319 25.4061 23.4259 25.3497 23.4823L23.4822 25.3498C23.4383 25.3937 23.3945 25.3999 23.3631 25.3999C23.3255 25.3999 23.2942 25.3874 23.2691 25.3686L21.0945 23.8207C20.825 23.6264 20.4615 23.6139 20.1733 23.7831C19.3523 24.2719 18.4687 24.6354 17.5474 24.8735C17.2215 24.955 16.9771 25.2245 16.927 25.5504L16.482 28.1825C16.4695 28.2639 16.4006 28.3203 16.3191 28.3203H13.6807C13.5992 28.3203 13.5303 28.2639 13.5178 28.1825L13.0791 25.5504C13.0227 25.2182 12.7783 24.955 12.4587 24.8735C11.5625 24.6416 10.6977 24.2844 9.88922 23.8207C9.75762 23.7455 9.60721 23.7079 9.46307 23.7079C9.29386 23.7079 9.11839 23.758 8.97425 23.8645L6.78082 25.425C6.74949 25.4438 6.71815 25.4563 6.68682 25.4563C6.66175 25.4563 6.61162 25.4501 6.56775 25.4062L4.7002 23.5387C4.6438 23.4823 4.63753 23.3945 4.6814 23.3256L6.22307 21.1635C6.41734 20.8878 6.42987 20.5243 6.26067 20.236C5.77185 19.4213 5.39583 18.5377 5.15769 17.6164C5.06995 17.2968 4.80674 17.0524 4.48086 16.996L1.82994 16.5448C1.74847 16.5322 1.69207 16.4633 1.69207 16.3818V13.7434C1.69207 13.662 1.74847 13.593 1.82994 13.5805L4.44326 13.1418C4.7754 13.0854 5.04488 12.841 5.12635 12.5151C5.35823 11.5939 5.71544 10.704 6.198 9.88302C6.3672 9.59474 6.3484 9.23752 6.15413 8.96804L4.59366 6.77462C4.54979 6.71195 4.55606 6.61794 4.61246 6.56154L6.48001 4.69399C6.52388 4.65013 6.56775 4.64386 6.59908 4.64386C6.63668 4.64386 6.66802 4.65639 6.69309 4.67519L8.85518 6.21686C9.13092 6.41113 9.4944 6.42367 9.78268 6.25446C10.5974 5.76564 11.481 5.38962 12.4023 5.15148C12.7219 5.06374 12.9663 4.80053 13.0227 4.47465L13.4739 1.82374C13.4864 1.74227 13.5554 1.68587 13.6368 1.68587H16.2752C16.3567 1.68587 16.4256 1.74227 16.4382 1.82374L16.8769 4.43705C16.9333 4.7692 17.1777 5.03868 17.5035 5.12015C18.4499 5.35829 19.3523 5.72804 20.1921 6.22313C20.4803 6.39233 20.8376 6.3798 21.1133 6.18552L23.2754 4.63133C23.3067 4.61252 23.3381 4.59999 23.3694 4.59999C23.3945 4.59999 23.4446 4.60626 23.4885 4.65013L25.356 6.51767C25.4124 6.57408 25.4187 6.66181 25.3748 6.73075L23.8269 8.90537C23.6326 9.17485 23.6201 9.53833 23.7893 9.82661C24.2781 10.6476 24.6416 11.5312 24.8797 12.4525C24.9612 12.7783 25.2307 13.0227 25.5566 13.0729L28.1887 13.5178C28.2701 13.5304 28.3265 13.5993 28.3265 13.6808V16.3192H28.3203Z" fill="#585E62" />
                                        <path d="M15.003 8.52309C11.4309 8.52309 8.5293 11.4247 8.5293 14.9968C8.5293 18.569 11.4309 21.4706 15.003 21.4706C18.5752 21.4706 21.4768 18.569 21.4768 14.9968C21.4768 11.4247 18.5752 8.52309 15.003 8.52309ZM15.003 19.7785C12.3647 19.7785 10.2214 17.6352 10.2214 14.9968C10.2214 12.3584 12.3647 10.2152 15.003 10.2152C17.6414 10.2152 19.7847 12.3584 19.7847 14.9968C19.7847 17.6352 17.6414 19.7785 15.003 19.7785Z" fill="#585E62" />
                                    </g>
                                    <defs>
                                        <clipPath id="clip0_120_1540">
                                            <rect width="30" height="30" fill="white" />
                                        </clipPath>
                                    </defs>
                                </svg>