<svg width="46" height="46" viewBox="0 0 46 46" fill="none" xmlns="http://www.w3.org/2000/svg">
<g clipPath="url(#clip0_265_587)">
<path d="M22.8018 45.6667C35.2282 45.6667 45.3018 35.5931 45.3018 23.1667C45.3018 10.7403 35.2282 0.666687 22.8018 0.666687C10.3753 0.666687 0.301758 10.7403 0.301758 23.1667C0.301758 35.5931 10.3753 45.6667 22.8018 45.6667Z" fill="#F0F0F0"/>
<path d="M4.95321 9.4682C3.18582 11.7677 1.85313 14.418 1.07715 17.2972H12.7822L4.95321 9.4682Z" fill="#0052B4"/>
<path d="M44.5272 17.2973C43.7512 14.4181 42.4184 11.7678 40.6511 9.46832L32.8223 17.2973H44.5272Z" fill="#0052B4"/>
<path d="M1.07715 29.0364C1.85322 31.9155 3.18591 34.5658 4.95321 36.8652L12.782 29.0364H1.07715Z" fill="#0052B4"/>
<path d="M36.5008 5.31792C34.2013 3.55053 31.5511 2.21785 28.6719 1.44177V13.1468L36.5008 5.31792Z" fill="#0052B4"/>
<path d="M9.10352 41.0154C11.403 42.7828 14.0533 44.1155 16.9325 44.8916V33.1866L9.10352 41.0154Z" fill="#0052B4"/>
<path d="M16.9324 1.44177C14.0533 2.21785 11.4029 3.55053 9.10352 5.31784L16.9324 13.1467V1.44177Z" fill="#0052B4"/>
<path d="M28.6719 44.8916C31.551 44.1155 34.2013 42.7828 36.5007 41.0155L28.6719 33.1866V44.8916Z" fill="#0052B4"/>
<path d="M32.8223 29.0364L40.6511 36.8653C42.4184 34.5659 43.7512 31.9155 44.5272 29.0364H32.8223Z" fill="#0052B4"/>
<path d="M45.1113 20.2319H25.7367H25.7366V0.857146C24.7759 0.732078 23.7964 0.666687 22.8018 0.666687C21.8069 0.666687 20.8276 0.732078 19.867 0.857146V20.2318V20.2318H0.492217C0.367148 21.1926 0.301758 22.172 0.301758 23.1667C0.301758 24.1615 0.367148 25.1408 0.492217 26.1014H19.8668H19.8669V45.4762C20.8276 45.6013 21.8069 45.6667 22.8018 45.6667C23.7964 45.6667 24.7759 45.6014 25.7365 45.4762V26.1016V26.1015H45.1113C45.2364 25.1408 45.3018 24.1615 45.3018 23.1667C45.3018 22.172 45.2364 21.1926 45.1113 20.2319Z" fill="#D80027"/>
<path d="M28.6709 29.0363L38.7112 39.0766C39.173 38.615 39.6135 38.1324 40.0337 37.6321L31.4379 29.0363H28.6709V29.0363Z" fill="#D80027"/>
<path d="M16.932 29.0364H16.9318L6.8916 39.0766C7.3532 39.5383 7.83581 39.9788 8.33608 40.3991L16.932 31.8031V29.0364Z" fill="#D80027"/>
<path d="M16.9322 17.2973V17.2971L6.89191 7.25671C6.43014 7.71832 5.98963 8.20092 5.56934 8.7012L14.1653 17.2972H16.9322V17.2973Z" fill="#D80027"/>
<path d="M28.6709 17.2973L38.7113 7.25682C38.2497 6.79504 37.7671 6.35453 37.2668 5.93433L28.6709 14.5303V17.2973V17.2973Z" fill="#D80027"/>
</g>
<defs>
<clipPath id="clip0_265_587">
<rect width="45" height="45" fill="white" transform="translate(0.301758 0.666687)"/>
</clipPath>
</defs>
</svg>
